<svg width="296" height="242" viewBox="0 0 296 242" fill="none" xmlns="http://www.w3.org/2000/svg">
<path d="M130.658 40.4717L134.774 63.8243C135.162 65.9717 137.22 67.4331 139.367 67.0454C141.515 66.6576 142.946 64.5998 142.588 62.4524L140.918 53.0577L138.144 37.3103L138.055 36.7734C118.251 43.3647 103.846 62.3927 103.101 85.0594H103.309C103.757 65.5541 114.762 48.7927 130.658 40.4717Z" fill="white"/>
<path d="M166.477 52.6692L164.747 62.3323C164.36 64.5095 165.821 66.5674 167.998 66.9552C170.175 67.3429 172.263 65.8815 172.651 63.7043L176.797 40.3815C192.723 48.8218 203.728 65.5832 204.205 85.0587H204.504C203.758 62.3622 189.263 43.2745 169.34 36.5938L169.251 37.1604L166.507 52.6692H166.477Z" fill="white"/>
<path d="M102.265 85.0586H100.475C96.3297 85.0586 92.9297 88.4586 92.9297 92.6042C92.9297 96.7498 96.3297 100.15 100.475 100.15H103.845C102.802 95.8849 102.175 91.4709 102.175 86.8779C102.175 86.2814 102.235 85.6849 102.265 85.0884V85.0586Z" fill="#1C8EFF"/>
<path d="M206.591 85.0591H204.802C204.802 85.6556 204.891 86.2521 204.891 86.8486C204.891 91.4416 204.265 95.8556 203.221 100.121H206.591C210.737 100.121 214.137 96.7205 214.137 92.5749C214.137 88.4293 210.737 85.0293 206.591 85.0293V85.0591Z" fill="#1C8EFF"/>
<path d="M169.37 35.9979L169.609 34.7155C167.759 31.7926 164.538 29.8242 160.87 29.8242H146.137C142.647 29.8242 139.545 31.5839 137.667 34.2681L137.965 35.8786C142.886 34.2383 148.105 33.3435 153.563 33.3435C159.021 33.3435 164.419 34.2681 169.43 35.9681L169.37 35.9979Z" fill="#1C8EFF"/>
<path d="M204.802 85.057H204.504C204.027 65.343 192.962 48.343 176.916 39.8132L172.741 63.4342C172.353 65.6114 170.236 67.1027 168.058 66.715C165.881 66.3272 164.39 64.2097 164.778 62.0325L166.507 52.25L169.281 36.5623L169.371 35.9957C164.36 34.2957 159.051 33.3711 153.504 33.3711C147.957 33.3711 142.827 34.2658 137.906 35.9062L137.995 36.443L140.828 52.4886L142.528 62.0623C142.916 64.2395 141.455 66.3571 139.248 66.7448C137.041 67.1325 134.953 65.6711 134.565 63.4641L130.36 39.6641C114.136 48.1343 102.892 65.2237 102.414 85.057H102.206C102.206 85.6535 102.116 86.25 102.116 86.8465C102.116 91.4395 102.743 95.8535 103.786 100.118H203.192C204.236 95.8535 204.862 91.4395 204.862 86.8465C204.862 86.25 204.802 85.6535 204.772 85.057H204.802Z" fill="#1C8EFF"/>
<path d="M156.935 65.3164H150.105V89.7725H156.935V65.3164Z" fill="white"/>
<path d="M141.306 73.9065V80.7363H165.762V73.9065H141.306Z" fill="white"/>
<path d="M141.037 117.508C143.08 117.508 144.735 115.852 144.735 113.81C144.735 111.767 143.08 110.111 141.037 110.111C138.995 110.111 137.339 111.767 137.339 113.81C137.339 115.852 138.995 117.508 141.037 117.508Z" fill="black"/>
<path d="M168.415 117.508C170.458 117.508 172.113 115.852 172.113 113.81C172.113 111.767 170.458 110.111 168.415 110.111C166.373 110.111 164.717 111.767 164.717 113.81C164.717 115.852 166.373 117.508 168.415 117.508Z" fill="black"/>
<path d="M111.869 113.811C111.869 133.316 131.016 149.242 153.862 149.093C176.26 148.944 194.9 133.435 195.228 114.318" stroke="black" stroke-width="10.7965" stroke-linecap="round" stroke-linejoin="bevel"/>
<path d="M78.462 189.867L65.6553 222.902C64.6376 225.501 63.1033 226.252 61.1776 226.252C59.2519 226.252 57.7802 225.516 56.7626 222.902L44.3003 189.93C43.4392 187.722 44.5195 186.251 46.3982 185.562C48.277 184.873 50.4845 185.343 51.2203 187.425L61.3655 216.952L71.7298 187.55C72.5283 185.343 74.501 184.889 76.4267 185.562C78.2428 186.188 79.3074 187.722 78.462 189.867Z" fill="black"/>
<path d="M109.602 185.627C111.293 185.627 112.091 186.989 112.091 188.633C112.091 190.277 111.293 191.639 109.602 191.639H92.6623V202.348H108.475C110.119 202.348 110.917 203.71 110.917 205.291C110.917 206.872 110.119 208.234 108.475 208.234H92.6623V219.914H109.994C111.684 219.914 112.483 221.323 112.483 222.92C112.483 224.517 111.684 225.926 109.994 225.926H90.2825C86.6503 225.926 85.4604 224.799 85.4604 221.229V190.355C85.4604 186.786 86.6503 185.658 90.2825 185.658H109.602V185.627Z" fill="black"/>
<path d="M134.495 185.627C142.871 185.627 147.755 190.167 147.755 197.244V198.261C147.755 203.475 145.094 206.935 140.898 208.626L148.037 221.26C149.055 223.123 148.319 224.939 146.566 225.801C144.812 226.599 142.777 226.536 141.806 224.611L134.041 209.769C133.649 209.831 133.195 209.831 132.788 209.831H126.275V223.139C126.275 225.3 124.569 226.255 122.643 226.255C120.717 226.255 119.011 225.284 119.011 223.139V190.339C119.011 186.77 120.201 185.643 123.833 185.643H134.479L134.495 185.627ZM126.275 203.757H132.898C138.393 203.757 140.554 201.831 140.554 198.152V197.416C140.554 193.674 138.393 191.686 133.524 191.686H126.275V203.757Z" fill="black"/>
<path d="M163.459 188.397V219.787H179.882C181.636 219.787 182.434 221.196 182.434 222.84C182.434 224.484 181.636 225.909 179.882 225.909H161.016C157.384 225.909 156.194 224.782 156.194 221.212V188.412C156.194 186.268 157.885 185.297 159.827 185.297C161.768 185.297 163.459 186.268 163.459 188.412V188.397Z" fill="black"/>
<path d="M219.289 204.601V206.919C219.289 220.68 212.948 226.52 201.957 226.52C190.967 226.52 184.626 220.68 184.626 206.919V204.601C184.626 190.84 190.967 185 201.957 185C212.948 185 219.289 190.84 219.289 204.601ZM191.922 205.165V206.355C191.922 216.61 195.319 219.897 201.957 219.897C208.595 219.897 211.993 216.61 211.993 206.355V205.165C211.993 194.91 208.595 191.623 201.957 191.623C195.319 191.623 191.922 194.91 191.922 205.165Z" fill="black"/>
<path d="M244.699 188.632L257.443 221.494C258.288 223.639 257.27 225.408 255.407 225.971C253.544 226.535 251.446 226.363 250.585 223.936L247.297 214.871H233.019L229.669 224.155C228.87 226.363 226.944 226.598 225.144 225.971C223.344 225.345 222.373 223.874 223.156 221.776L235.9 188.632C236.87 186.033 238.389 185.281 240.268 185.281C242.147 185.281 243.665 186.017 244.683 188.632H244.699ZM238.186 200.64L235.18 208.859H245.153L242.209 200.64C241.254 197.978 240.738 196.334 240.174 194.346C239.548 196.616 239.094 198.025 238.186 200.64Z" fill="black"/>
<path d="M278.093 185.627C289.819 185.627 295.941 191.013 295.941 204.727V206.825C295.941 220.54 289.819 225.926 278.093 225.926H268.746C265.114 225.926 263.924 224.799 263.924 221.229V190.355C263.924 186.786 265.114 185.658 268.746 185.658H278.093V185.627ZM271.126 219.789H277.122C285.388 219.789 288.629 216.454 288.629 206.246V205.275C288.629 195.083 285.404 191.733 277.122 191.733H271.126V219.773V219.789Z" fill="black"/>
<path d="M20.52 184.618C31.578 184.618 37.962 190.489 37.962 204.34V206.677C37.962 220.528 31.578 226.399 20.52 226.399C9.462 226.399 3.078 220.528 3.078 206.677V204.34C3.078 190.489 9.462 184.618 20.52 184.618ZM20.52 191.287C13.851 191.287 10.431 194.593 10.431 204.91V206.107C10.431 216.424 13.851 219.73 20.52 219.73C27.189 219.73 30.609 216.424 30.609 206.107V204.91C30.609 194.593 27.189 191.287 20.52 191.287Z" fill="black"/>
</svg>
