<svg width="197" height="61" viewBox="0 0 197 61" fill="none" xmlns="http://www.w3.org/2000/svg">
<path d="M71.3245 26.2811L64.9876 42.7549C64.4841 44.051 63.7249 44.4257 62.7721 44.4257C61.8192 44.4257 61.091 44.0588 60.5875 42.7549L54.4211 26.3123C53.995 25.2115 54.5295 24.4776 55.4591 24.134C56.3887 23.7905 57.481 24.0247 57.8451 25.0631L62.865 39.7881L67.9934 25.1256C68.3885 24.0247 69.3646 23.7983 70.3174 24.134C71.216 24.4463 71.7428 25.2115 71.3245 26.2811Z" fill="black"/>
<path d="M86.7326 24.166C87.5693 24.166 87.9643 24.8453 87.9643 25.6651C87.9643 26.4848 87.5693 27.1641 86.7326 27.1641H78.3506V32.5044H86.1748C86.9882 32.5044 87.3833 33.1837 87.3833 33.9722C87.3833 34.7608 86.9882 35.44 86.1748 35.44H78.3506V41.2644H86.9263C87.7629 41.2644 88.158 41.9671 88.158 42.7635C88.158 43.5598 87.7629 44.2625 86.9263 44.2625H77.1731C75.3759 44.2625 74.7871 43.7004 74.7871 41.9203V26.5239C74.7871 24.7438 75.3759 24.1816 77.1731 24.1816H86.7326V24.166Z" fill="black"/>
<path d="M99.0502 24.166C103.195 24.166 105.612 26.4302 105.612 29.9592V30.4667C105.612 33.0666 104.295 34.792 102.219 35.6352L105.751 41.9359C106.255 42.865 105.891 43.7706 105.023 44.2001C104.155 44.5982 103.148 44.567 102.668 43.6067L98.8256 36.2052C98.6319 36.2364 98.4072 36.2364 98.2058 36.2364H94.9832V42.8728C94.9832 43.9502 94.1388 44.4265 93.1859 44.4265C92.2331 44.4265 91.3887 43.9424 91.3887 42.8728V26.5161C91.3887 24.736 91.9774 24.1738 93.7747 24.1738H99.0425L99.0502 24.166ZM94.9832 33.2071H98.26C100.979 33.2071 102.048 32.2468 102.048 30.412V30.0451C102.048 28.1791 100.979 27.1875 98.5699 27.1875H94.9832V33.2071Z" fill="black"/>
<path d="M113.382 25.5478V41.2019H121.508C122.376 41.2019 122.771 41.9046 122.771 42.7243C122.771 43.5441 122.376 44.2546 121.508 44.2546H112.173C110.376 44.2546 109.787 43.6925 109.787 41.9124V25.5556C109.787 24.486 110.624 24.002 111.584 24.002C112.545 24.002 113.382 24.486 113.382 25.5556V25.5478Z" fill="black"/>
<path d="M141.007 33.6285V34.784C141.007 41.6468 137.869 44.559 132.431 44.559C126.993 44.559 123.855 41.6468 123.855 34.784V33.6285C123.855 26.7657 126.993 23.8535 132.431 23.8535C137.869 23.8535 141.007 26.7657 141.007 33.6285ZM127.465 33.9096V34.5029C127.465 39.6169 129.146 41.2564 132.431 41.2564C135.716 41.2564 137.397 39.6169 137.397 34.5029V33.9096C137.397 28.7957 135.716 27.1561 132.431 27.1561C129.146 27.1561 127.465 28.7957 127.465 33.9096Z" fill="black"/>
<path d="M153.58 25.6649L159.886 42.0529C160.304 43.1225 159.801 44.0048 158.879 44.2858C157.957 44.5669 156.919 44.481 156.493 43.2709L154.866 38.7503H147.801L146.143 43.3802C145.748 44.481 144.795 44.5981 143.904 44.2858C143.013 43.9735 142.533 43.2396 142.92 42.1934L149.226 25.6649C149.707 24.3689 150.458 23.9941 151.388 23.9941C152.317 23.9941 153.069 24.3611 153.572 25.6649H153.58ZM150.357 31.6533L148.87 35.7522H153.805L152.348 31.6533C151.876 30.326 151.62 29.5062 151.341 28.5147C151.031 29.6468 150.807 30.3494 150.357 31.6533Z" fill="black"/>
<path d="M170.104 24.166C175.906 24.166 178.935 26.8518 178.935 33.6912V34.7374C178.935 41.5767 175.906 44.2625 170.104 44.2625H165.479C163.682 44.2625 163.093 43.7004 163.093 41.9203V26.5239C163.093 24.7438 163.682 24.1816 165.479 24.1816H170.104V24.166ZM166.656 41.202H169.623C173.714 41.202 175.317 39.539 175.317 34.4485V33.9644C175.317 28.8817 173.721 27.2109 169.623 27.2109H166.656V41.1942V41.202Z" fill="black"/>
<path d="M28.9578 16.3724L30.0269 22.4857C30.1276 23.0478 30.6621 23.4304 31.2199 23.3289C31.7776 23.2274 32.1495 22.6887 32.0565 22.1266L31.6227 19.6672L30.9022 15.5448L30.879 15.4043C25.7352 17.1298 21.9935 22.1109 21.7998 28.0446H21.854C21.9702 22.9385 24.8288 18.5507 28.9578 16.3724Z" fill="white"/>
<path d="M38.2614 19.5657L37.8121 22.0953C37.7114 22.6652 38.091 23.204 38.6565 23.3055C39.222 23.407 39.7643 23.0244 39.865 22.4544L40.9418 16.349C45.0785 18.5585 47.9371 22.9463 48.061 28.0446H48.1385C47.9448 22.1031 44.1799 17.1063 39.0051 15.3574L38.9819 15.5058L38.2692 19.5657H38.2614Z" fill="white"/>
<path d="M21.5829 28.0449H21.1181C20.0413 28.0449 19.1582 28.935 19.1582 30.0202C19.1582 31.1055 20.0413 31.9955 21.1181 31.9955H21.9935C21.7224 30.879 21.5597 29.7235 21.5597 28.5212C21.5597 28.365 21.5752 28.2089 21.5829 28.0527V28.0449Z" fill="#1C8EFF"/>
<path d="M48.681 28.0449H48.2162C48.2162 28.2011 48.2395 28.3572 48.2395 28.5134C48.2395 29.7157 48.0768 30.8712 47.8057 31.9877H48.681C49.7578 31.9877 50.641 31.0976 50.641 30.0124C50.641 28.9272 49.7578 28.0371 48.681 28.0371V28.0449Z" fill="#1C8EFF"/>
<path d="M39.0131 15.2021L39.0751 14.8664C38.5948 14.1012 37.7581 13.5859 36.8053 13.5859H32.9784C32.072 13.5859 31.2664 14.0466 30.7783 14.7493L30.8558 15.1709C32.134 14.7414 33.4897 14.5072 34.9073 14.5072C36.325 14.5072 37.7272 14.7493 39.0286 15.1943L39.0131 15.2021Z" fill="#1C8EFF"/>
<path d="M48.216 28.0441H48.1386C48.0146 22.8833 45.1406 18.433 40.9728 16.2001L39.8883 22.3836C39.7876 22.9536 39.2375 23.344 38.672 23.2425C38.1065 23.141 37.7192 22.5866 37.8199 22.0167L38.2692 19.4558L38.9896 15.3491L39.0129 15.2007C37.7114 14.7557 36.3325 14.5137 34.8916 14.5137C33.4507 14.5137 32.1183 14.7479 30.8401 15.1773L30.8633 15.3178L31.5992 19.5183L32.0408 22.0245C32.1415 22.5944 31.7619 23.1488 31.1887 23.2503C30.6154 23.3518 30.0731 22.9692 29.9724 22.3914L28.8801 16.1611C24.6659 18.3784 21.7454 22.8521 21.6214 28.0441H21.5672C21.5672 28.2002 21.5439 28.3564 21.5439 28.5125C21.5439 29.7149 21.7066 30.8704 21.9778 31.9869H47.7977C48.0688 30.8704 48.2315 29.7149 48.2315 28.5125C48.2315 28.3564 48.216 28.2002 48.2083 28.0441H48.216Z" fill="#1C8EFF"/>
<path d="M35.7828 22.877H34.0088V29.2791H35.7828V22.877Z" fill="white"/>
<path d="M31.7236 25.1261V26.9141H38.076V25.1261H31.7236Z" fill="white"/>
<path d="M31.653 36.5398C32.1835 36.5398 32.6136 36.1063 32.6136 35.5716C32.6136 35.037 32.1835 34.6035 31.653 34.6035C31.1225 34.6035 30.6924 35.037 30.6924 35.5716C30.6924 36.1063 31.1225 36.5398 31.653 36.5398Z" fill="black"/>
<path d="M38.7643 36.5398C39.2948 36.5398 39.7249 36.1063 39.7249 35.5716C39.7249 35.037 39.2948 34.6035 38.7643 34.6035C38.2338 34.6035 37.8037 35.037 37.8037 35.5716C37.8037 36.1063 38.2338 36.5398 38.7643 36.5398Z" fill="black"/>
<path d="M24.0771 35.5723C24.0771 40.6784 29.0506 44.8476 34.9846 44.8085C40.8024 44.7695 45.6441 40.7096 45.7293 35.705" stroke="black" stroke-width="3.08903" stroke-linecap="round" stroke-linejoin="bevel"/>
</svg>
