<svg width="54" height="54" viewBox="0 0 54 54" fill="none" xmlns="http://www.w3.org/2000/svg">
<circle cx="27" cy="27" r="27" fill="white"/>
<path d="M19.6502 9.57008L21.0302 17.4001C21.1602 18.1201 21.8502 18.6101 22.5702 18.4801C23.2902 18.3501 23.7702 17.6601 23.6502 16.9401L23.0902 13.7901L22.1602 8.51008L22.1302 8.33008C15.4902 10.5401 10.6602 16.9201 10.4102 24.5201H10.4802C10.6302 17.9801 14.3202 12.3601 19.6502 9.57008Z" fill="white"/>
<path d="M31.66 13.6595L31.08 16.8995C30.95 17.6295 31.44 18.3195 32.17 18.4495C32.9 18.5795 33.6 18.0895 33.73 17.3595L35.12 9.53953C40.46 12.3695 44.15 17.9895 44.31 24.5195H44.41C44.16 16.9095 39.3 10.5095 32.62 8.26953L32.59 8.45953L31.67 13.6595H31.66Z" fill="white"/>
<path d="M10.13 24.5195H9.53C8.14 24.5195 7 25.6595 7 27.0495C7 28.4395 8.14 29.5795 9.53 29.5795H10.66C10.31 28.1495 10.1 26.6695 10.1 25.1295C10.1 24.9295 10.12 24.7295 10.13 24.5295V24.5195Z" fill="#1C8EFF"/>
<path d="M45.11 24.5198H44.51C44.51 24.7198 44.54 24.9198 44.54 25.1198C44.54 26.6598 44.33 28.1398 43.98 29.5698H45.11C46.5 29.5698 47.64 28.4298 47.64 27.0398C47.64 25.6498 46.5 24.5098 45.11 24.5098V24.5198Z" fill="#1C8EFF"/>
<path d="M32.63 8.07L32.71 7.64C32.09 6.66 31.01 6 29.78 6H24.84C23.67 6 22.63 6.59 22 7.49L22.1 8.03C23.75 7.48 25.5 7.18 27.33 7.18C29.16 7.18 30.97 7.49 32.65 8.06L32.63 8.07Z" fill="#1C8EFF"/>
<path d="M44.5101 24.5195H44.4101C44.2501 17.9095 40.5401 12.2095 35.1601 9.34945L33.7601 17.2695C33.6301 17.9995 32.9201 18.4995 32.1901 18.3695C31.4601 18.2395 30.9601 17.5295 31.0901 16.7995L31.6701 13.5195L32.6001 8.25945L32.6301 8.06945C30.9501 7.49945 29.1701 7.18945 27.3101 7.18945C25.4501 7.18945 23.7301 7.48945 22.0801 8.03945L22.1101 8.21945L23.0601 13.5995L23.6301 16.8095C23.7601 17.5395 23.2701 18.2495 22.5301 18.3795C21.7901 18.5095 21.0901 18.0195 20.9601 17.2795L19.5501 9.29945C14.1101 12.1395 10.3401 17.8695 10.1801 24.5195H10.1101C10.1101 24.7195 10.0801 24.9195 10.0801 25.1195C10.0801 26.6595 10.2901 28.1395 10.6401 29.5695H43.9701C44.3201 28.1395 44.5301 26.6595 44.5301 25.1195C44.5301 24.9195 44.5101 24.7195 44.5001 24.5195H44.5101Z" fill="#1C8EFF"/>
<path d="M28.4604 17.9004H26.1704V26.1004H28.4604V17.9004Z" fill="white"/>
<path d="M23.2202 20.7803V23.0703H31.4202V20.7803H23.2202Z" fill="white"/>
<path d="M23.1301 35.3999C23.815 35.3999 24.3701 34.8448 24.3701 34.1599C24.3701 33.4751 23.815 32.9199 23.1301 32.9199C22.4453 32.9199 21.8901 33.4751 21.8901 34.1599C21.8901 34.8448 22.4453 35.3999 23.1301 35.3999Z" fill="black"/>
<path d="M32.3098 35.3999C32.9947 35.3999 33.5498 34.8448 33.5498 34.1599C33.5498 33.4751 32.9947 32.9199 32.3098 32.9199C31.625 32.9199 31.0698 33.4751 31.0698 34.1599C31.0698 34.8448 31.625 35.3999 32.3098 35.3999Z" fill="black"/>
<path d="M13.3501 34.1602C13.3501 40.7002 19.7701 46.0402 27.4301 45.9902C34.9401 45.9402 41.1901 40.7402 41.3001 34.3302" stroke="black" stroke-width="3.62" stroke-linecap="round" stroke-linejoin="bevel"/>
</svg>
