<svg width="23" height="22" viewBox="0 0 23 22" fill="none" xmlns="http://www.w3.org/2000/svg">
<path d="M11.0226 1.5C11.4075 0.833333 12.3698 0.833333 12.7547 1.5L20.5489 15C20.9338 15.6667 20.4527 16.5 19.6829 16.5H4.09444C3.32464 16.5 2.84352 15.6667 3.22842 15L11.0226 1.5Z" fill="#FF4747"/>
<path d="M12.292 11.5097H10.966L10.8293 5.51381H12.4246L12.292 11.5097ZM10.7215 13.1837C10.7188 13.0207 10.7575 12.8702 10.8376 12.732C10.9204 12.5939 11.0309 12.4848 11.1691 12.4047C11.3099 12.3246 11.4633 12.2845 11.629 12.2845C11.7892 12.2845 11.9384 12.3246 12.0765 12.4047C12.2174 12.4848 12.3293 12.5939 12.4122 12.732C12.495 12.8702 12.5365 13.0207 12.5365 13.1837C12.5365 13.3467 12.495 13.4986 12.4122 13.6395C12.3293 13.7776 12.2174 13.8881 12.0765 13.971C11.9384 14.0511 11.7892 14.0912 11.629 14.0912C11.4633 14.0912 11.3099 14.0511 11.1691 13.971C11.0309 13.8881 10.9204 13.7776 10.8376 13.6395C10.7575 13.4986 10.7188 13.3467 10.7215 13.1837Z" fill="white"/>
</svg>
