<svg width="115" height="102" viewBox="0 0 115 102" fill="none" xmlns="http://www.w3.org/2000/svg">
<path d="M52.7544 7.08603C54.9173 3.75491 59.7934 3.75492 61.9563 7.08604L101.525 68.0269C103.895 71.6764 101.275 76.5 96.9241 76.5H17.7867C13.4353 76.5 10.8161 71.6764 13.1857 68.0269L52.7544 7.08603Z" fill="#FD1A25"/>
<path d="M59.3636 51.3231H54.2108L53.6482 33.1285H59.9262L59.3636 51.3231ZM53.5075 56.3992C53.499 55.8196 53.6397 55.2826 53.9295 54.7882C54.2278 54.2852 54.6284 53.8889 55.1314 53.5991C55.6428 53.3092 56.1926 53.1643 56.7808 53.1643C57.3519 53.1643 57.8889 53.3135 58.3918 53.6118C58.8947 53.9017 59.2954 54.2938 59.5937 54.7882C59.9006 55.2826 60.054 55.8196 60.054 56.3992C60.054 56.9874 59.9006 57.5329 59.5937 58.0358C59.2954 58.5388 58.8947 58.9394 58.3918 59.2377C57.8889 59.5276 57.3519 59.6725 56.7808 59.6725C56.1841 59.6725 55.6343 59.5276 55.1314 59.2377C54.6284 58.9394 54.2278 58.543 53.9295 58.0486C53.6397 57.5457 53.499 56.9959 53.5075 56.3992Z" fill="white"/>
</svg>
