<svg width="22" height="22" viewBox="0 0 22 22" fill="none" xmlns="http://www.w3.org/2000/svg">
<path d="M10.134 1.5C10.5189 0.833333 11.4811 0.833333 11.866 1.5L19.6603 15C20.0452 15.6667 19.564 16.5 18.7942 16.5H3.20577C2.43597 16.5 1.95485 15.6667 2.33975 15L10.134 1.5Z" fill="#EEC02B"/>
<path d="M11.5312 5.51562L11.4023 11.5039H10.0781L9.9375 5.51562H11.5312ZM10.7461 14.0938C10.2422 14.0938 9.83203 13.6836 9.83203 13.1797C9.83203 12.6875 10.2422 12.2773 10.7461 12.2773C11.2266 12.2773 11.6484 12.6875 11.6484 13.1797C11.6484 13.6836 11.2266 14.0938 10.7461 14.0938Z" fill="white"/>
</svg>
