<svg width="59" height="59" viewBox="0 0 59 59" fill="none" xmlns="http://www.w3.org/2000/svg">
<path d="M27.0832 4.00876C28.1118 2.22709 30.6834 2.22709 31.7121 4.00877L52.5423 40.0877C53.5709 41.8694 52.2851 44.0964 50.2278 44.0964H8.56746C6.51016 44.0964 5.22435 41.8693 6.253 40.0877L27.0832 4.00876Z" fill="#FCBE2D"/>
<path d="M30.4758 32.3619H26.9321L26.5667 16.3379H30.8302L30.4758 32.3619ZM26.2788 36.8358C26.2714 36.4002 26.3748 35.9978 26.5889 35.6287C26.8103 35.2596 27.1056 34.968 27.4748 34.7539C27.8513 34.5398 28.261 34.4327 28.704 34.4327C29.1322 34.4327 29.5308 34.5398 29.9 34.7539C30.2765 34.968 30.5755 35.2596 30.7969 35.6287C31.0184 35.9978 31.1292 36.4002 31.1292 36.8358C31.1292 37.2713 31.0184 37.6774 30.7969 38.0539C30.5755 38.423 30.2765 38.7183 29.9 38.9398C29.5308 39.1539 29.1322 39.261 28.704 39.261C28.261 39.261 27.8513 39.1539 27.4748 38.9398C27.1056 38.7183 26.8103 38.423 26.5889 38.0539C26.3748 37.6774 26.2714 37.2713 26.2788 36.8358Z" fill="white"/>
</svg>
