<svg width="136" height="42" viewBox="0 0 136 42" fill="none" xmlns="http://www.w3.org/2000/svg">
<path d="M49.2388 18.0956L44.8641 29.4383C44.5165 30.3306 43.9924 30.5887 43.3345 30.5887C42.6767 30.5887 42.174 30.336 41.8264 29.4383L37.5694 18.1171C37.2752 17.3592 37.6443 16.8539 38.286 16.6173C38.9278 16.3808 39.6819 16.5421 39.9332 17.257L43.3987 27.3955L46.9391 17.3C47.2119 16.5421 47.8857 16.3862 48.5435 16.6173C49.1639 16.8324 49.5275 17.3592 49.2388 18.0956Z" fill="black"/>
<path d="M59.8755 16.6387C60.4531 16.6387 60.7259 17.1064 60.7259 17.6708C60.7259 18.2352 60.4531 18.7029 59.8755 18.7029H54.089V22.3799H59.4905C60.052 22.3799 60.3248 22.8476 60.3248 23.3905C60.3248 23.9334 60.052 24.4011 59.4905 24.4011H54.089V28.4114H60.0092C60.5868 28.4114 60.8596 28.8952 60.8596 29.4435C60.8596 29.9918 60.5868 30.4756 60.0092 30.4756H53.2761C52.0354 30.4756 51.6289 30.0886 51.6289 28.8629V18.2621C51.6289 17.0365 52.0354 16.6494 53.2761 16.6494H59.8755V16.6387Z" fill="black"/>
<path d="M68.379 16.6387C71.2402 16.6387 72.9088 18.1976 72.9088 20.6274V20.9768C72.9088 22.7669 71.9996 23.9549 70.5664 24.5355L73.0051 28.8737C73.3527 29.5134 73.1013 30.1369 72.5024 30.4326C71.9034 30.7068 71.2081 30.6853 70.8766 30.0241L68.2239 24.9279C68.0902 24.9494 67.9351 24.9494 67.7961 24.9494H65.5713V29.5187C65.5713 30.2606 64.9884 30.5885 64.3306 30.5885C63.6728 30.5885 63.0898 30.2552 63.0898 29.5187V18.2567C63.0898 17.0311 63.4963 16.644 64.737 16.644H68.3737L68.379 16.6387ZM65.5713 22.8637H67.8335C69.7107 22.8637 70.4487 22.2025 70.4487 20.9392V20.6865C70.4487 19.4018 69.7107 18.7191 68.0475 18.7191H65.5713V22.8637Z" fill="black"/>
<path d="M78.2725 17.5898V28.368H83.8826C84.4815 28.368 84.7543 28.8518 84.7543 29.4162C84.7543 29.9807 84.4815 30.4698 83.8826 30.4698H77.4382C76.1975 30.4698 75.791 30.0828 75.791 28.8571V17.5951C75.791 16.8587 76.3686 16.5254 77.0318 16.5254C77.6949 16.5254 78.2725 16.8587 78.2725 17.5951V17.5898Z" fill="black"/>
<path d="M97.3444 23.1542V23.9497C97.3444 28.6749 95.1785 30.6801 91.4242 30.6801C87.6698 30.6801 85.5039 28.6749 85.5039 23.9497V23.1542C85.5039 18.4289 87.6698 16.4238 91.4242 16.4238C95.1785 16.4238 97.3444 18.4289 97.3444 23.1542ZM87.9961 23.3477V23.7562C87.9961 27.2773 89.1566 28.4062 91.4242 28.4062C93.6917 28.4062 94.8522 27.2773 94.8522 23.7562V23.3477C94.8522 19.8266 93.6917 18.6977 91.4242 18.6977C89.1566 18.6977 87.9961 19.8266 87.9961 23.3477Z" fill="black"/>
<path d="M106.024 17.6699L110.377 28.9534C110.666 29.6899 110.318 30.2973 109.682 30.4909C109.045 30.6844 108.329 30.6253 108.034 29.792L106.911 26.6795H102.034L100.889 29.8673C100.617 30.6253 99.9589 30.7059 99.3439 30.4909C98.7289 30.2758 98.3973 29.7705 98.6647 29.0502L103.018 17.6699C103.35 16.7776 103.868 16.5195 104.51 16.5195C105.152 16.5195 105.671 16.7722 106.018 17.6699H106.024ZM103.799 21.7931L102.772 24.6153H106.179L105.173 21.7931C104.847 20.8792 104.67 20.3147 104.478 19.632C104.264 20.4115 104.109 20.8953 103.799 21.7931Z" fill="black"/>
<path d="M117.431 16.6387C121.436 16.6387 123.528 18.4879 123.528 23.197V23.9173C123.528 28.6264 121.436 30.4756 117.431 30.4756H114.238C112.997 30.4756 112.591 30.0886 112.591 28.8629V18.2621C112.591 17.0365 112.997 16.6494 114.238 16.6494H117.431V16.6387ZM115.051 28.3684H117.099C119.923 28.3684 121.03 27.2233 121.03 23.7184V23.3851C121.03 19.8856 119.928 18.7352 117.099 18.7352H115.051V28.363V28.3684Z" fill="black"/>
<path d="M19.9914 11.274L20.7294 15.4831C20.7989 15.8702 21.1679 16.1336 21.553 16.0637C21.938 15.9938 22.1948 15.6229 22.1306 15.2359L21.8311 13.5425L21.3337 10.7042L21.3177 10.6074C17.7666 11.7954 15.1835 15.2251 15.0498 19.3106H15.0872C15.1675 15.7949 17.1409 12.7738 19.9914 11.274Z" fill="white"/>
<path d="M26.4141 13.4736L26.104 15.2154C26.0344 15.6078 26.2965 15.9787 26.6869 16.0486C27.0773 16.1185 27.4517 15.8551 27.5212 15.4626L28.2645 11.2589C31.1204 12.7802 33.0938 15.8013 33.1794 19.3116H33.2329C33.0992 15.2207 30.5 11.7803 26.9275 10.5762L26.9115 10.6783L26.4195 13.4736H26.4141Z" fill="white"/>
<path d="M14.8995 19.3105H14.5786C13.8353 19.3105 13.2256 19.9234 13.2256 20.6706C13.2256 21.4178 13.8353 22.0306 14.5786 22.0306H15.183C14.9958 21.2619 14.8835 20.4663 14.8835 19.6385C14.8835 19.5309 14.8942 19.4234 14.8995 19.3159V19.3105Z" fill="#1C8EFF"/>
<path d="M33.6073 19.312H33.2864C33.2864 19.4195 33.3024 19.527 33.3024 19.6346C33.3024 20.4624 33.1901 21.258 33.0029 22.0267H33.6073C34.3506 22.0267 34.9603 21.4139 34.9603 20.6667C34.9603 19.9195 34.3506 19.3066 33.6073 19.3066V19.312Z" fill="#1C8EFF"/>
<path d="M26.933 10.4682L26.9758 10.2371C26.6442 9.71026 26.0666 9.35547 25.4088 9.35547H22.7669C22.1412 9.35547 21.585 9.67263 21.248 10.1564L21.3015 10.4467C22.184 10.1511 23.1199 9.9898 24.0985 9.9898C25.0772 9.9898 26.0452 10.1564 26.9437 10.4629L26.933 10.4682Z" fill="#1C8EFF"/>
<path d="M33.2863 19.3102H33.2328C33.1472 15.7568 31.1631 12.6927 28.2859 11.1553L27.5371 15.4128C27.4676 15.8052 27.0879 16.074 26.6975 16.0041C26.3071 15.9342 26.0397 15.5526 26.1092 15.1601L26.4194 13.3969L26.9168 10.5693L26.9328 10.4672C26.0344 10.1608 25.0824 9.99414 24.0877 9.99414C23.0929 9.99414 22.1731 10.1554 21.2907 10.4511L21.3067 10.5478L21.8148 13.4399L22.1196 15.1655C22.1891 15.5579 21.9271 15.9396 21.5313 16.0095C21.1356 16.0794 20.7612 15.816 20.6917 15.4182L19.9376 11.1284C17.0283 12.6551 15.0121 15.7353 14.9265 19.3102H14.8891C14.8891 19.4177 14.873 19.5252 14.873 19.6327C14.873 20.4605 14.9854 21.2561 15.1725 22.0249H32.9975C33.1846 21.2561 33.297 20.4605 33.297 19.6327C33.297 19.5252 33.2863 19.4177 33.2809 19.3102H33.2863Z" fill="#1C8EFF"/>
<path d="M24.7032 15.752H23.4785V20.16H24.7032V15.752Z" fill="white"/>
<path d="M21.9004 17.3002V18.5312H26.2858V17.3002H21.9004Z" fill="white"/>
<path d="M21.8516 25.1593C22.2179 25.1593 22.5148 24.8609 22.5148 24.4928C22.5148 24.1246 22.2179 23.8262 21.8516 23.8262C21.4854 23.8262 21.1885 24.1246 21.1885 24.4928C21.1885 24.8609 21.4854 25.1593 21.8516 25.1593Z" fill="black"/>
<path d="M26.7618 25.1593C27.128 25.1593 27.4249 24.8609 27.4249 24.4928C27.4249 24.1246 27.128 23.8262 26.7618 23.8262C26.3955 23.8262 26.0986 24.1246 26.0986 24.4928C26.0986 24.8609 26.3955 25.1593 26.7618 25.1593Z" fill="black"/>
<path d="M16.6221 24.4922C16.6221 28.0079 20.0555 30.8785 24.1521 30.8516C28.1684 30.8247 31.5109 28.0294 31.5698 24.5836" stroke="black" stroke-width="2.26339" stroke-linecap="round" stroke-linejoin="bevel"/>
</svg>
